<svg xmlns="http://www.w3.org/2000/svg" width="72.5" height="46.512" viewBox="0 0 72.5 46.512">
  <path id="credit-card-payment-icon" d="M6.531,33.743h9.89v2.385H6.531ZM50.4,26.18a5.684,5.684,0,0,1,4.579,2.327,5.73,5.73,0,1,1,0,6.842A5.725,5.725,0,1,1,50.4,26.18ZM67.547,43.22a1.71,1.71,0,0,0,1.676-1.635V19.78H2.261v21.8a1.536,1.536,0,0,0,.477,1.164,1.67,1.67,0,0,0,1.164.494ZM3.913,45.495a3.811,3.811,0,0,1-2.769-1.164A3.828,3.828,0,0,1-.02,41.568V3.921A3.91,3.91,0,0,1,3.913,0H67.547A3.933,3.933,0,0,1,71.48,3.921V41.585a3.886,3.886,0,0,1-1.164,2.763,3.962,3.962,0,0,1-2.775,1.164H3.907ZM2.261,8.471H69.223V3.915a1.6,1.6,0,0,0-.506-1.164,1.635,1.635,0,0,0-1.164-.506H3.913a1.629,1.629,0,0,0-1.164.506,1.606,1.606,0,0,0-.477,1.164V8.471ZM20.988,33.743H37.446v2.385H20.988Z" transform="translate(0.52 0.5)" stroke="#707070" stroke-width="1" fill-rule="evenodd"/>
</svg>
