<svg xmlns="http://www.w3.org/2000/svg" width="35.001" height="63.249" viewBox="0 0 35.001 63.249">
  <defs>
    <style>
      .cls-1 {
        fill: #ffb767;
      }
    </style>
  </defs>
  <path id="Path_4246" data-name="Path 4246" class="cls-1" d="M1185.992-97.237c.469-5.44-.826-12.107.833-18.669,2.857-11.3,11.778-17.532,23.294-18.1,3.171-.157,4.928.966,5.025,4.452.184,6.553.122,6.823-4.324,7.208-8.326.721-11.673,3.725-12.653,11.355-.48,3.739,1.115,5.831,4.877,6.053,2.76.163,5.537.022,8.307.046,5.976.052,9.532,3.577,9.569,9.527.032,5.124.047,10.248,0,15.371-.055,5.606-3.733,9.166-9.469,9.2q-7.894.049-15.786,0c-5.9-.027-9.518-3.518-9.644-9.5C1185.9-85.55,1185.992-90.815,1185.992-97.237Z" transform="translate(-1185.948 134.023)"/>
</svg>
