<svg xmlns="http://www.w3.org/2000/svg" width="35.008" height="63.252" viewBox="0 0 35.008 63.252">
  <defs>
    <style>
      .cls-1 {
        fill: #ffb767;
      }
    </style>
  </defs>
  <path id="Path_4247" data-name="Path 4247" class="cls-1" d="M1233.994-97.156c.48-5.424-.806-12.084.815-18.655,2.855-11.578,12.164-17.792,23.63-18.2,3.367-.119,4.96,1.477,4.64,4.771-.282,2.9,1.708,6.836-4.156,7.007-8.381.245-11.705,3.537-12.723,11.147-.528,3.948,1.111,5.981,5.163,6.16,2.765.121,5.539,0,8.307.034,5.481.073,9.179,3.64,9.244,9.011q.1,8.1,0,16.2a8.727,8.727,0,0,1-8.951,8.876c-5.4.065-10.8.031-16.2.01-5.981-.022-9.6-3.433-9.739-9.4C1233.9-85.452,1233.994-90.716,1233.994-97.156Z" transform="translate(-1233.957 134.016)"/>
</svg>
