<svg xmlns="http://www.w3.org/2000/svg" xmlns:xlink="http://www.w3.org/1999/xlink" width="74.938" height="63.257" viewBox="0 0 74.938 63.257">
  <defs>
    <style>
      .cls-1 {
        fill: none;
      }

      .cls-2 {
        clip-path: url(#clip-path);
      }

      .cls-3 {
        fill: #ffb767;
      }
    </style>
    <clipPath id="clip-path">
      <rect class="cls-1" width="74.938" height="63.257"/>
    </clipPath>
  </defs>
  <g id="Repeat_Grid_1" data-name="Repeat Grid 1" class="cls-2">
    <g id="Group_1580" data-name="Group 1580">
      <path id="Path_4246" data-name="Path 4246" class="cls-3" d="M1185.992-97.237c.469-5.44-.826-12.107.833-18.669,2.857-11.3,11.778-17.532,23.294-18.1,3.171-.157,4.928.966,5.025,4.452.184,6.553.122,6.823-4.324,7.208-8.326.721-11.673,3.725-12.653,11.355-.48,3.739,1.115,5.831,4.877,6.053,2.76.163,5.537.022,8.307.046,5.976.052,9.532,3.577,9.569,9.527.032,5.124.047,10.248,0,15.371-.055,5.606-3.733,9.166-9.469,9.2q-7.894.049-15.786,0c-5.9-.027-9.518-3.518-9.644-9.5C1185.9-85.55,1185.992-90.815,1185.992-97.237Z" transform="translate(-1185.948 134.023)"/>
      <path id="Path_4247" data-name="Path 4247" class="cls-3" d="M1233.994-97.156c.48-5.424-.806-12.084.815-18.655,2.855-11.578,12.164-17.792,23.63-18.2,3.367-.119,4.96,1.477,4.64,4.771-.282,2.9,1.708,6.836-4.156,7.007-8.381.245-11.705,3.537-12.723,11.147-.528,3.948,1.111,5.981,5.163,6.16,2.765.121,5.539,0,8.307.034,5.481.073,9.179,3.64,9.244,9.011q.1,8.1,0,16.2a8.727,8.727,0,0,1-8.951,8.876c-5.4.065-10.8.031-16.2.01-5.981-.022-9.6-3.433-9.739-9.4C1233.9-85.452,1233.994-90.716,1233.994-97.156Z" transform="translate(-1194.026 134.022)"/>
    </g>
  </g>
</svg>
